<mxfile host="Electron" modified="2024-06-25T10:24:19.291Z" agent="Mozilla/5.0 (Windows NT 10.0; Win64; x64) AppleWebKit/537.36 (KHTML, like Gecko) draw.io/24.6.1 Chrome/124.0.6367.207 Electron/30.0.6 Safari/537.36" etag="ixNZHQs6FRPfziQAh6Lm" version="24.6.1" type="device">
  <diagram name="Page-1" id="gD4knQP0gvwpoBo_Pkf2">
    <mxGraphModel dx="1434" dy="956" grid="1" gridSize="10" guides="1" tooltips="1" connect="1" arrows="1" fold="1" page="1" pageScale="1" pageWidth="850" pageHeight="1100" math="0" shadow="0">
      <root>
        <mxCell id="0" />
        <mxCell id="1" parent="0" />
        <mxCell id="iTBE02pN30BK4hjJ5ZyR-1" value="Client" style="rounded=1;whiteSpace=wrap;html=1;" vertex="1" parent="1">
          <mxGeometry x="60" y="470" width="120" height="60" as="geometry" />
        </mxCell>
        <mxCell id="iTBE02pN30BK4hjJ5ZyR-4" style="edgeStyle=orthogonalEdgeStyle;rounded=0;orthogonalLoop=1;jettySize=auto;html=1;exitX=0.5;exitY=1;exitDx=0;exitDy=0;entryX=0.5;entryY=1;entryDx=0;entryDy=0;" edge="1" parent="1" source="iTBE02pN30BK4hjJ5ZyR-2" target="iTBE02pN30BK4hjJ5ZyR-1">
          <mxGeometry relative="1" as="geometry">
            <Array as="points">
              <mxPoint x="530" y="560" />
              <mxPoint x="120" y="560" />
            </Array>
          </mxGeometry>
        </mxCell>
        <mxCell id="iTBE02pN30BK4hjJ5ZyR-5" value="HTTP 201 Created&lt;br&gt;Content-Type: application/json&lt;br&gt;&lt;br&gt;{ .. }" style="edgeLabel;html=1;align=left;verticalAlign=middle;resizable=0;points=[];" vertex="1" connectable="0" parent="iTBE02pN30BK4hjJ5ZyR-4">
          <mxGeometry x="-0.0444" y="-1" relative="1" as="geometry">
            <mxPoint x="-65" y="51" as="offset" />
          </mxGeometry>
        </mxCell>
        <mxCell id="iTBE02pN30BK4hjJ5ZyR-2" value="Server" style="rounded=1;whiteSpace=wrap;html=1;" vertex="1" parent="1">
          <mxGeometry x="470" y="470" width="120" height="60" as="geometry" />
        </mxCell>
        <mxCell id="iTBE02pN30BK4hjJ5ZyR-3" value="PUT /users/&lt;br&gt;Content-Type: application/json&lt;br&gt;Accept: application/json&lt;br&gt;&lt;br&gt;&lt;div style=&quot;&quot;&gt;{ .. }&lt;/div&gt;" style="edgeStyle=orthogonalEdgeStyle;rounded=0;orthogonalLoop=1;jettySize=auto;html=1;exitX=0.5;exitY=0;exitDx=0;exitDy=0;entryX=0.558;entryY=-0.017;entryDx=0;entryDy=0;entryPerimeter=0;align=left;" edge="1" parent="1" source="iTBE02pN30BK4hjJ5ZyR-1" target="iTBE02pN30BK4hjJ5ZyR-2">
          <mxGeometry x="-0.2544" y="50" relative="1" as="geometry">
            <Array as="points">
              <mxPoint x="120" y="430" />
              <mxPoint x="537" y="430" />
            </Array>
            <mxPoint as="offset" />
          </mxGeometry>
        </mxCell>
      </root>
    </mxGraphModel>
  </diagram>
</mxfile>
